<?xml version="1.0" standalone="no"?>
<!DOCTYPE svg PUBLIC "-//W3C//DTD SVG 20010904//EN"
 "http://www.w3.org/TR/2001/REC-SVG-20010904/DTD/svg10.dtd">
<svg version="1.0" xmlns="http://www.w3.org/2000/svg"
 width="18.000000pt" height="18.000000pt" viewBox="0 0 18.000000 18.000000"
 preserveAspectRatio="xMidYMid meet">
<metadata>
Created by potrace 1.16, written by Peter Selinger 2001-2019
</metadata>
<g transform="translate(0.000000,18.000000) scale(0.002500,-0.002500)"
fill="#000000" stroke="none">
<path d="M3475 5328 c-179 -20 -352 -104 -468 -227 -108 -114 -172 -240 -220
-430 -18 -74 -21 -114 -21 -281 0 -175 2 -206 26 -305 68 -288 199 -513 359
-616 l49 -32 0 -62 0 -61 -122 -33 c-310 -84 -633 -204 -771 -288 -318 -190
-419 -401 -442 -919 -7 -153 -1 -184 42 -203 35 -16 3352 -16 3387 0 44 20 48
49 37 255 -16 289 -51 443 -132 580 -44 75 -166 199 -249 253 -91 59 -243 131
-394 185 -127 46 -519 166 -543 166 -9 0 -13 19 -13 63 l0 64 49 32 c160 103
292 329 359 616 23 98 26 131 26 305 0 167 -3 207 -21 281 -48 190 -112 316
-220 430 -121 128 -288 207 -485 228 -108 12 -120 12 -233 -1z m320 -153 c244
-64 401 -230 477 -505 20 -76 23 -106 22 -285 0 -193 -2 -204 -33 -320 -37
-138 -98 -273 -165 -363 -44 -60 -154 -152 -181 -152 -8 0 -23 -12 -35 -27
-20 -26 -21 -37 -18 -160 2 -102 6 -136 18 -148 9 -8 89 -35 179 -60 453 -125
723 -235 869 -353 182 -146 247 -312 267 -684 l6 -118 -1601 0 -1601 0 6 117
c14 252 53 421 123 529 134 205 363 322 967 495 116 33 217 67 225 75 11 11
16 46 18 145 4 150 -1 165 -71 200 -145 73 -263 255 -330 507 -29 111 -30 127
-31 317 -1 180 2 209 22 285 83 301 267 475 547 520 79 12 245 4 320 -15z"/>
</g>
</svg>
