<svg width="13" height="13" viewBox="0 0 13 13" fill="none" xmlns="http://www.w3.org/2000/svg">
<path d="M6.49984 0.666504C8.08475 0.666504 8.2825 0.672337 8.90434 0.701504C9.52559 0.730671 9.9485 0.828087 10.3207 0.972754C10.7057 1.12092 11.03 1.32159 11.3543 1.64534C11.651 1.93694 11.8805 2.28968 12.0269 2.679C12.171 3.05059 12.269 3.47409 12.2982 4.09534C12.3256 4.71717 12.3332 4.91492 12.3332 6.49984C12.3332 8.08475 12.3273 8.2825 12.2982 8.90434C12.269 9.52559 12.171 9.9485 12.0269 10.3207C11.8809 10.7102 11.6513 11.063 11.3543 11.3543C11.0626 11.6509 10.7099 11.8804 10.3207 12.0269C9.94909 12.171 9.52559 12.269 8.90434 12.2982C8.2825 12.3256 8.08475 12.3332 6.49984 12.3332C4.91492 12.3332 4.71717 12.3273 4.09534 12.2982C3.47409 12.269 3.05117 12.171 2.679 12.0269C2.28953 11.8808 1.93673 11.6512 1.64534 11.3543C1.34866 11.0628 1.11913 10.71 0.972754 10.3207C0.828087 9.94909 0.730671 9.52559 0.701504 8.90434C0.674087 8.2825 0.666504 8.08475 0.666504 6.49984C0.666504 4.91492 0.672337 4.71717 0.701504 4.09534C0.730671 3.4735 0.828087 3.05117 0.972754 2.679C1.11873 2.28944 1.34831 1.93661 1.64534 1.64534C1.93681 1.34856 2.28959 1.11901 2.679 0.972754C3.05117 0.828087 3.4735 0.730671 4.09534 0.701504C4.71717 0.674087 4.91492 0.666504 6.49984 0.666504ZM6.49984 3.58317C5.72629 3.58317 4.98442 3.89046 4.43744 4.43744C3.89046 4.98442 3.58317 5.72629 3.58317 6.49984C3.58317 7.27339 3.89046 8.01525 4.43744 8.56223C4.98442 9.10921 5.72629 9.4165 6.49984 9.4165C7.27339 9.4165 8.01525 9.10921 8.56223 8.56223C9.10921 8.01525 9.4165 7.27339 9.4165 6.49984C9.4165 5.72629 9.10921 4.98442 8.56223 4.43744C8.01525 3.89046 7.27339 3.58317 6.49984 3.58317ZM10.2915 3.43734C10.2915 3.24395 10.2147 3.05848 10.0779 2.92174C9.94119 2.78499 9.75572 2.70817 9.56234 2.70817C9.36895 2.70817 9.18348 2.78499 9.04674 2.92174C8.90999 3.05848 8.83317 3.24395 8.83317 3.43734C8.83317 3.63072 8.90999 3.81619 9.04674 3.95294C9.18348 4.08968 9.36895 4.1665 9.56234 4.1665C9.75572 4.1665 9.94119 4.08968 10.0779 3.95294C10.2147 3.81619 10.2915 3.63072 10.2915 3.43734ZM6.49984 4.74984C6.96397 4.74984 7.40909 4.93421 7.73727 5.2624C8.06546 5.59059 8.24984 6.03571 8.24984 6.49984C8.24984 6.96397 8.06546 7.40909 7.73727 7.73727C7.40909 8.06546 6.96397 8.24984 6.49984 8.24984C6.03571 8.24984 5.59059 8.06546 5.2624 7.73727C4.93421 7.40909 4.74984 6.96397 4.74984 6.49984C4.74984 6.03571 4.93421 5.59059 5.2624 5.2624C5.59059 4.93421 6.03571 4.74984 6.49984 4.74984Z" fill="#2B2B2B"/>
</svg>
