<svg width="13" height="11" viewBox="0 0 13 11" fill="none" xmlns="http://www.w3.org/2000/svg">
<path d="M12.4277 1.79953C11.9823 1.99652 11.5101 2.12589 11.0265 2.18337C11.5362 1.87854 11.9177 1.39879 12.0998 0.833535C11.6215 1.1182 11.0971 1.3177 10.5505 1.42562C10.1834 1.03279 9.69672 0.772263 9.16624 0.684542C8.63575 0.596822 8.09115 0.686821 7.61709 0.940549C7.14303 1.19428 6.76607 1.59752 6.54483 2.08758C6.32359 2.57764 6.27045 3.12707 6.39368 3.65045C5.42366 3.60183 4.47471 3.34976 3.60843 2.91059C2.74216 2.47142 1.97792 1.85498 1.36535 1.10128C1.14852 1.47371 1.03457 1.89708 1.03518 2.32803C1.03518 3.17387 1.46568 3.92112 2.12018 4.35862C1.73285 4.34642 1.35405 4.24182 1.01535 4.05354V4.08387C1.01546 4.64719 1.2104 5.19314 1.56709 5.62915C1.92379 6.06516 2.4203 6.3644 2.97243 6.47612C2.61287 6.57356 2.23586 6.58792 1.86993 6.51812C2.0256 7.003 2.32902 7.42707 2.73769 7.73093C3.14637 8.0348 3.63984 8.20325 4.14901 8.2127C3.64296 8.61014 3.06353 8.90394 2.44386 9.0773C1.82419 9.25066 1.17642 9.30018 0.537598 9.22303C1.65275 9.9402 2.9509 10.3209 4.27676 10.3197C8.76435 10.3197 11.2184 6.60212 11.2184 3.37804C11.2184 3.27304 11.2155 3.16687 11.2108 3.06303C11.6885 2.7178 12.1008 2.29013 12.4283 1.80012L12.4277 1.79953Z" fill="#2B2B2B"/>
</svg>
